<svg width="204" height="54" viewBox="0 0 204 54" class="css-1j8o68f"><defs id="SvgjsDefs4733"></defs><g id="SvgjsG4734" featurekey="symbolFeature-0" transform="matrix(1.6875,0,0,1.6875,0,0)" fill="#ffffff"><g xmlns="http://www.w3.org/2000/svg" transform="translate(0,-1020.3622)"><path d="m 11.5,1020.86 0,31.0001 1.99071,0 c -10e-6,-0.065 0.003,-0.1304 0.01,-0.1953 0.007,-0.064 0.0164,-0.1281 0.0293,-0.1914 0.0125,-0.064 0.0281,-0.1271 0.0469,-0.1895 0.0191,-0.062 0.0412,-0.1235 0.0664,-0.1836 0.0257,-0.06 0.0544,-0.1186 0.0859,-0.1757 0.0311,-0.057 0.065,-0.1124 0.10156,-0.1661 0.0365,-0.053 0.0756,-0.1048 0.11719,-0.1543 0.0419,-0.05 0.0862,-0.097 0.13281,-0.1425 0.0466,-0.045 0.0955,-0.088 0.14649,-0.1289 0.0514,-0.041 0.1049,-0.078 0.16015,-0.1133 0.0543,-0.035 0.11039,-0.068 0.16797,-0.098 0.0579,-0.03 0.11719,-0.056 0.17774,-0.08 0.0608,-0.023 0.12272,-0.043 0.18554,-0.06 0.0624,-0.018 0.12563,-0.032 0.18946,-0.043 0.064,-0.011 0.12855,-0.019 0.19336,-0.023 l 0.13867,0 c 0.0652,0 0.13041,0 0.19531,0.01 0.0642,0.01 0.1281,0.015 0.19141,0.027 0.0639,0.013 0.12716,0.029 0.18945,0.049 0.0623,0.019 0.12354,0.041 0.18359,0.066 0.06,0.026 0.11867,0.054 0.17578,0.086 0.057,0.031 0.11241,0.065 0.16602,0.1016 0.0533,0.036 0.10484,0.076 0.1543,0.1171 0.0497,0.042 0.0973,0.086 0.14258,0.1329 0.0454,0.047 0.0884,0.096 0.1289,0.1464 0.0404,0.052 0.0782,0.1049 0.11328,0.1602 0.0353,0.054 0.0679,0.1104 0.0977,0.168 0.0296,0.058 0.0564,0.1172 0.0801,0.1777 0.0233,0.061 0.0435,0.1227 0.0606,0.1855 0.0175,0.062 0.0318,0.1257 0.043,0.1895 0.011,0.064 0.0188,0.1286 0.0234,0.1934 0.003,0.046 0.004,0.092 0.004,0.1386 l 6.61116,0 c 0.83101,0 1.5,-0.669 1.5,-1.5 l 0,-28 c 0,-0.831 -0.66899,-1.5 -1.5,-1.5 l -6.6112,0 c 10e-6,0.065 -0.003,0.1304 -0.01,0.1953 -0.007,0.064 -0.0164,0.1281 -0.0293,0.1914 -0.0125,0.064 -0.0281,0.1271 -0.0469,0.1895 -0.0191,0.062 -0.0412,0.1235 -0.0664,0.1836 -0.0257,0.06 -0.0544,0.1186 -0.0859,0.1757 -0.0311,0.057 -0.065,0.1124 -0.10157,0.1661 -0.0365,0.053 -0.0756,0.1048 -0.11718,0.1543 -0.0419,0.05 -0.0862,0.097 -0.13282,0.1425 -0.0466,0.045 -0.0955,0.088 -0.14648,0.1289 -0.0515,0.04 -0.1049,0.078 -0.16016,0.1133 -0.0543,0.035 -0.11039,0.068 -0.16796,0.098 -0.0579,0.03 -0.1172,0.056 -0.17774,0.08 -0.0608,0.023 -0.12273,0.043 -0.18555,0.06 -0.0624,0.018 -0.12562,0.032 -0.18945,0.043 -0.064,0.011 -0.12856,0.019 -0.19336,0.023 l -0.13867,0 c -0.0652,0 -0.13041,0 -0.19531,-0.01 -0.0642,-0.01 -0.12813,-0.016 -0.19141,-0.029 -0.0639,-0.012 -0.12712,-0.028 -0.18945,-0.047 -0.0623,-0.019 -0.12355,-0.041 -0.1836,-0.066 -0.06,-0.026 -0.11866,-0.054 -0.17578,-0.086 -0.057,-0.031 -0.1124,-0.065 -0.16601,-0.1015 -0.0533,-0.036 -0.10484,-0.076 -0.1543,-0.1172 -0.0497,-0.042 -0.0973,-0.086 -0.14258,-0.1328 -0.0454,-0.047 -0.0884,-0.096 -0.1289,-0.1465 -0.0404,-0.052 -0.0782,-0.1049 -0.11329,-0.1602 -0.0353,-0.054 -0.0679,-0.1104 -0.0977,-0.1679 -0.0296,-0.058 -0.0564,-0.1172 -0.0801,-0.1778 -0.0233,-0.061 -0.0435,-0.1227 -0.0606,-0.1855 -0.0175,-0.062 -0.0318,-0.1256 -0.043,-0.1895 -0.011,-0.064 -0.0189,-0.1285 -0.0234,-0.1933 -0.003,-0.046 -0.004,-0.092 -0.004,-0.1387 z" style="" fill="none" stroke="none"></path><path style="color:;font-style:normal;font-variant:normal;font-weight:normal;font-stretch:normal;font-size:medium;line-height:normal;font-family:sans-serif;text-indent:0;text-align:start;text-decoration:none;text-decoration-line:none;text-decoration-style:solid;text-decoration-color:;letter-spacing:normal;word-spacing:normal;text-transform:none;direction:ltr;block-progression:tb;writing-mode:lr-tb;baseline-shift:baseline;text-anchor:start;white-space:normal;clip-rule:nonzero;display:inline;overflow:visible;visibility:visible;opacity:1;isolation:auto;mix-blend-mode:normal;color-interpolation:sRGB;color-interpolation-filters:linearRGB;solid-color:;solid-opacity:1;fill:#ffffff;fill-opacity:1;fill-rule:nonzero;stroke:none;stroke-width:1;stroke-linecap:round;stroke-linejoin:round;stroke-miterlimit:4;stroke-dasharray:none;stroke-dashoffset:0;stroke-opacity:1;color-rendering:auto;image-rendering:auto;shape-rendering:auto;text-rendering:auto;enable-background:accumulate" d="M 3 0 C 1.3466411 0 0 1.3467 0 3 L 0 29 C 0 30.6534 1.3466411 32 3 32 L 29 32 C 30.653359 32 32 30.6534 32 29 L 32 3 C 32 1.3467 30.653359 0 29 0 L 3 0 z M 3 1 L 29 1 C 30.116661 1 31 1.8834 31 3 L 31 29 C 31 30.1167 30.116661 31 29 31 L 3 31 C 1.8833403 31 1 30.1167 1 29 L 1 3 C 1 1.8834 1.8833403 1 3 1 z M 3.75 2 C 2.7894238 2 2.0000063 2.7895 2 3.75 C 2.0000063 4.7106 2.7894238 5.5 3.75 5.5 C 4.7105761 5.5 5.4999937 4.7106 5.5 3.75 C 5.4999937 2.7895 4.7105761 2 3.75 2 z M 28.25 2 C 27.289424 2 26.500006 2.7895 26.5 3.75 C 26.500006 4.7106 27.289424 5.5 28.25 5.5 C 29.210576 5.5 29.999994 4.7106 30 3.75 C 29.999994 2.7895 29.210576 2 28.25 2 z M 3.75 3 C 4.1701384 3 4.4999972 3.3299 4.5 3.75 C 4.4999972 4.1702 4.1701384 4.5 3.75 4.5 C 3.3298616 4.5 3.0000028 4.1702 3 3.75 C 3.0000028 3.3299 3.3298616 3 3.75 3 z M 12.5 3 L 12.5 6 L 11.5 6 A 0.50005 0.50005 0 0 0 11 6.5 L 11 8 L 9.4375 8 C 8.6497856 8 8 8.6498 8 9.4375 L 8 11 L 6.5 11 A 0.50005 0.50005 0 0 0 6.0058594 11.439453 A 0.50005 0.50005 0 0 0 6.0039062 11.449219 A 0.50005 0.50005 0 0 0 6.0019531 11.46875 A 0.50005 0.50005 0 0 0 6 11.498047 A 0.50005 0.50005 0 0 0 6 11.507812 L 6 12.5 L 3 12.5 L 3 13.5 L 6 13.5 L 6 14.5 L 3 14.5 L 3 15.5 L 6 15.5 L 6 16.5 L 3 16.5 L 3 17.5 L 6 17.5 L 6 18.5 L 3 18.5 L 3 19.5 L 6 19.5 L 6 20.507812 A 0.50005 0.50005 0 0 0 6.5 21.007812 L 8 21.007812 L 8 22.5625 C 8 23.3502 8.6497214 24 9.4375 24 L 11 24 L 11 25.5 A 0.50005 0.50005 0 0 0 11.345703 25.974609 A 0.50005 0.50005 0 0 0 11.394531 25.988281 A 0.50005 0.50005 0 0 0 11.494141 26 A 0.50005 0.50005 0 0 0 11.5 26 L 12.5 26 L 12.5 29 L 13.5 29 L 13.5 26 L 14.5 26 L 14.5 29 L 15.5 29 L 15.5 26 L 16.5 26 L 16.5 29 L 17.5 29 L 17.5 26 L 18.5 26 L 18.5 29 L 19.5 29 L 19.5 26 L 20.464844 26 L 20.5 26 A 0.50005 0.50005 0 0 0 20.550781 26 A 0.50005 0.50005 0 0 0 20.599609 25.990234 A 0.50005 0.50005 0 0 0 21 25.5 L 21 24 L 22.5625 24 C 23.350278 24 24 23.3502 24 22.5625 L 24 21.007812 L 25.5 21.007812 L 25.492188 20.998047 A 0.50005 0.50005 0 0 0 26 20.5 L 26 19.5 L 29 19.5 L 29 18.5 L 26 18.5 L 26 17.5 L 29 17.5 L 29 16.5 L 26 16.5 L 26 15.5 L 29 15.5 L 29 14.5 L 26 14.5 L 26 13.5 L 29 13.5 L 29 12.5 L 26 12.5 L 26 11.5 A 0.50005 0.50005 0 0 0 25.5 11 L 24 11 L 24 9.4375 C 24 8.6498 23.350214 8 22.5625 8 L 21 8 L 21 6.5 L 20.992188 6.5097656 A 0.50005 0.50005 0 0 0 20.990234 6.4589844 A 0.50005 0.50005 0 0 0 20.5 6 L 19.5 6 L 19.5 3 L 18.5 3 L 18.5 6 L 17.5 6 L 17.5 3 L 16.5 3 L 16.5 6 L 15.5 6 L 15.5 3 L 14.5 3 L 14.5 6 L 13.5 6 L 13.5 3 L 12.5 3 z M 28.25 3 C 28.670138 3 28.999997 3.3299 29 3.75 C 28.999997 4.1702 28.670138 4.5 28.25 4.5 C 27.829862 4.5 27.500003 4.1702 27.5 3.75 C 27.500003 3.3299 27.829862 3 28.25 3 z M 12 7 L 20 7 L 20 8 L 12 8 L 12 7 z M 9.4375 9 L 22.5625 9 C 22.813552 9 23 9.1865 23 9.4375 L 23 11.498047 A 0.50005 0.50005 0 0 0 23 11.507812 L 23 20.507812 L 23 22.5625 C 23 22.8134 22.813488 23 22.5625 23 L 9.4375 23 C 9.1865116 23 9 22.8134 9 22.5625 L 9 20.5 L 9 11.5 L 9 9.4375 C 9 9.1865 9.1864474 9 9.4375 9 z M 12 11.5 A 0.5 0.5 0 0 0 11.5 12 A 0.5 0.5 0 0 0 12 12.5 A 0.5 0.5 0 0 0 12.5 12 A 0.5 0.5 0 0 0 12 11.5 z M 14 11.5 A 0.5 0.5 0 0 0 13.5 12 A 0.5 0.5 0 0 0 14 12.5 A 0.5 0.5 0 0 0 14.5 12 A 0.5 0.5 0 0 0 14 11.5 z M 16 11.5 A 0.5 0.5 0 0 0 15.5 12 A 0.5 0.5 0 0 0 16 12.5 A 0.5 0.5 0 0 0 16.5 12 A 0.5 0.5 0 0 0 16 11.5 z M 18 11.5 A 0.5 0.5 0 0 0 17.5 12 A 0.5 0.5 0 0 0 18 12.5 A 0.5 0.5 0 0 0 18.5 12 A 0.5 0.5 0 0 0 18 11.5 z M 20 11.5 A 0.5 0.5 0 0 0 19.5 12 A 0.5 0.5 0 0 0 20 12.5 A 0.5 0.5 0 0 0 20.5 12 A 0.5 0.5 0 0 0 20 11.5 z M 7 12 L 8 12 L 8 20 L 7 20 L 7 12 z M 24 12 L 25 12 L 25 20 L 24 20 L 24 12 z M 13 13.5 A 0.5 0.5 0 0 0 12.5 14 A 0.5 0.5 0 0 0 13 14.5 A 0.5 0.5 0 0 0 13.5 14 A 0.5 0.5 0 0 0 13 13.5 z M 15 13.5 A 0.5 0.5 0 0 0 14.5 14 A 0.5 0.5 0 0 0 15 14.5 A 0.5 0.5 0 0 0 15.5 14 A 0.5 0.5 0 0 0 15 13.5 z M 17 13.5 A 0.5 0.5 0 0 0 16.5 14 A 0.5 0.5 0 0 0 17 14.5 A 0.5 0.5 0 0 0 17.5 14 A 0.5 0.5 0 0 0 17 13.5 z M 19 13.5 A 0.5 0.5 0 0 0 18.5 14 A 0.5 0.5 0 0 0 19 14.5 A 0.5 0.5 0 0 0 19.5 14 A 0.5 0.5 0 0 0 19 13.5 z M 12 15.5 A 0.5 0.5 0 0 0 11.5 16 A 0.5 0.5 0 0 0 12 16.5 A 0.5 0.5 0 0 0 12.5 16 A 0.5 0.5 0 0 0 12 15.5 z M 14 15.5 A 0.5 0.5 0 0 0 13.5 16 A 0.5 0.5 0 0 0 14 16.5 A 0.5 0.5 0 0 0 14.5 16 A 0.5 0.5 0 0 0 14 15.5 z M 16 15.5 A 0.5 0.5 0 0 0 15.5 16 A 0.5 0.5 0 0 0 16 16.5 A 0.5 0.5 0 0 0 16.5 16 A 0.5 0.5 0 0 0 16 15.5 z M 18 15.5 A 0.5 0.5 0 0 0 17.5 16 A 0.5 0.5 0 0 0 18 16.5 A 0.5 0.5 0 0 0 18.5 16 A 0.5 0.5 0 0 0 18 15.5 z M 20 15.5 A 0.5 0.5 0 0 0 19.5 16 A 0.5 0.5 0 0 0 20 16.5 A 0.5 0.5 0 0 0 20.5 16 A 0.5 0.5 0 0 0 20 15.5 z M 13 17.5 A 0.5 0.5 0 0 0 12.5 18 A 0.5 0.5 0 0 0 13 18.5 A 0.5 0.5 0 0 0 13.5 18 A 0.5 0.5 0 0 0 13 17.5 z M 15 17.5 A 0.5 0.5 0 0 0 14.5 18 A 0.5 0.5 0 0 0 15 18.5 A 0.5 0.5 0 0 0 15.5 18 A 0.5 0.5 0 0 0 15 17.5 z M 17 17.5 A 0.5 0.5 0 0 0 16.5 18 A 0.5 0.5 0 0 0 17 18.5 A 0.5 0.5 0 0 0 17.5 18 A 0.5 0.5 0 0 0 17 17.5 z M 19 17.5 A 0.5 0.5 0 0 0 18.5 18 A 0.5 0.5 0 0 0 19 18.5 A 0.5 0.5 0 0 0 19.5 18 A 0.5 0.5 0 0 0 19 17.5 z M 12 19.5 A 0.5 0.5 0 0 0 11.5 20 A 0.5 0.5 0 0 0 12 20.5 A 0.5 0.5 0 0 0 12.5 20 A 0.5 0.5 0 0 0 12 19.5 z M 14 19.5 A 0.5 0.5 0 0 0 13.5 20 A 0.5 0.5 0 0 0 14 20.5 A 0.5 0.5 0 0 0 14.5 20 A 0.5 0.5 0 0 0 14 19.5 z M 16 19.5 A 0.5 0.5 0 0 0 15.5 20 A 0.5 0.5 0 0 0 16 20.5 A 0.5 0.5 0 0 0 16.5 20 A 0.5 0.5 0 0 0 16 19.5 z M 18 19.5 A 0.5 0.5 0 0 0 17.5 20 A 0.5 0.5 0 0 0 18 20.5 A 0.5 0.5 0 0 0 18.5 20 A 0.5 0.5 0 0 0 18 19.5 z M 20 19.5 A 0.5 0.5 0 0 0 19.5 20 A 0.5 0.5 0 0 0 20 20.5 A 0.5 0.5 0 0 0 20.5 20 A 0.5 0.5 0 0 0 20 19.5 z M 12 24 L 20 24 L 20 25 L 12 25 L 12 24 z M 3.75 26.5 C 2.7894238 26.5 2.0000063 27.2895 2 28.25 C 2.0000063 29.2106 2.7894238 30 3.75 30 C 4.7105761 30 5.4999937 29.2106 5.5 28.25 C 5.4999937 27.2895 4.7105761 26.5 3.75 26.5 z M 28.25 26.5 C 27.289424 26.5 26.500006 27.2895 26.5 28.25 C 26.500006 29.2106 27.289424 30 28.25 30 C 29.210576 30 29.999994 29.2106 30 28.25 C 29.999994 27.2895 29.210576 26.5 28.25 26.5 z M 3.75 27.5 C 4.1701384 27.5 4.4999972 27.8299 4.5 28.25 C 4.4999972 28.6702 4.1701384 29 3.75 29 C 3.3298616 29 3.0000028 28.6702 3 28.25 C 3.0000028 27.8299 3.3298616 27.5 3.75 27.5 z M 28.25 27.5 C 28.670138 27.5 28.999997 27.8299 29 28.25 C 28.999997 28.6702 28.670138 29 28.25 29 C 27.829862 29 27.500003 28.6702 27.5 28.25 C 27.500003 27.8299 27.829862 27.5 28.25 27.5 z " transform="translate(0,1020.3622)"></path></g></g><g id="SvgjsG4735" featurekey="nameFeature-0" transform="matrix(1.1594719886779785,0,0,1.1594719886779785,73.07242165924946,-10.156969848920017)" fill="#ffffff"><path d="M14.84 23.08 c4.92 -3.2 2.96 -7 -2.8 -6.52 c-0.48 0.04 -1.04 0.08 -1.68 0.12 l0.32 9.08 c1.4 -0.88 2.76 -1.76 4.16 -2.68 z M19.44 28.48 l4.96 10.56 l-1.68 1.76 l-2.72 0 l-1.6 1.92 l-4.88 -10.32 c-0.84 0.48 -1.68 0.92 -2.56 1.36 l0.24 6.88 l-2.12 -0.04 l-1.44 1.12 l-1.48 -1.4 l-1.96 1.04 l-0.8 -24.04 l-2 0.2 l0.88 -2.44 l-1.32 -1.68 l0.68 -1.04 l-0.84 -1.76 s7.84 -1.08 11.64 -1.04 c4.52 0.04 9.6 0.76 11.68 5.64 c2.24 5.4 -0.28 9.72 -4.68 13.28 z M46.88 37.56 l0.92 1.96 l-16.24 2.76 l-0.24 -1.88 l-1.8 0.04 l0.28 -2 l-1.92 -0.08 l0.6 -20.6 l-2 0 l0.96 -2 l-1 -1.28 l0.6 -1.52 l-0.4 -2.04 l18.64 -0.92 l0.68 3.16 l-1.12 1.24 l0.92 2.6 l-10.24 0.48 l-0.16 5.4 l9.32 -1.12 l-0.88 2.6 l1.4 1.24 l-0.76 3.2 l-9.28 1.16 l-0.12 4.56 l12.16 -2 l-0.8 2.36 l1.24 1.2 z M75.4 10.600000000000001 l0.96 30.84 l-2.8 -1.04 l-1.72 1.72 l-2.44 -1.04 l-0.4 -10.44 l-5.72 13.72 l-5.92 -14.36 l0 11.08 l-1.92 -0.24 l-1.76 0.76 l-1.16 -1.24 l-2.16 0.96 l0.2 -31.16 l2.04 1.2 l1.6 -1.6 l2.88 1.04 l6.04 15.52 l5.56 -16.04 l1.48 0.76 l1.68 -2.28 l1.56 1.84 l2 0 z M84.96000000000001 10.48 l2.4 -0.12 l-0.2 29.96 l-2.2 1.6 l-2.64 -1.76 l-2.16 1.24 l0.2 -30.6 l2.2 -1.44 l1.48 1.6 z M109.64 12.36 l3.28 0.12 l-7.88 13.8 l5.6 11.76 l-1.8 2.52 l-2.76 -0.64 l-1.2 2.32 l-4.08 -8.56 l-5 8.84 l-1.92 -1.04 l-2.16 0 l-0.28 -2.04 l-2.28 0.48 l7.96 -13.92 l-6.44 -13.52 l2.04 0.12 l0.84 -2.44 l1.84 0.6 l1.76 -1 l4.2 8.84 l5.08 -8.88 l2.76 0.32 z"></path></g><g id="SvgjsG4736" featurekey="sloganFeature-0" transform="matrix(0.8217151165008545,0,0,0.8217151165008545,80.00000001530563,35.51343612574154)" fill="#ffffff"><path d="M4.66 11.52 c0.44 0.44 0.72 1.04 0.72 1.7 l0 4.38 c0 1.32 -1.08 2.4 -2.4 2.4 l-2.96 0 l-0.02 -14.24 l2.64 0 c1.46 0.06 2.32 1.46 2.3 2.78 l-0.02 1.98 c0 0.36 -0.1 0.7 -0.26 1 z M2.98 18.08 c0.28 0 0.5 -0.22 0.5 -0.48 l-0.02 -4.38 c0 -0.28 -0.22 -0.48 -0.48 -0.48 l-1.06 0 l0 5.34 l1.06 0 z M1.9 7.66 l0 3.16 l0.8 0 c0.16 0 0.32 -0.14 0.32 -0.32 l0.02 -1.98 c0 -0.4 -0.2 -0.84 -0.48 -0.86 l-0.66 0 z M14.238 18.12 l2.76 0 l0 1.88 l-4.64 0 l0 -14.36 l1.88 0 l0 12.48 z M28.636 12.46 l-2.76 0 l0 5.64 l2.78 0 l0 1.9 l-4.68 0 l0 -14.28 l4.68 0 l0 1.9 l-2.78 0 l0 2.94 l2.76 0 l0 1.9 z M40.294 12.46 l-2.76 0 l0 5.64 l2.78 0 l0 1.9 l-4.68 0 l0 -14.28 l4.68 0 l0 1.9 l-2.78 0 l0 2.94 l2.76 0 l0 1.9 z M49.792 20.02 l-2.5 0 l0 -14.26 l2.5 0 c1.7 0 3.06 1.38 3.06 3.08 l0 8.1 c0 0.82 -0.32 1.6 -0.9 2.18 s-1.34 0.9 -2.16 0.9 z M49.192 7.68 l0 10.42 l0.6 0 c0.3 0 0.6 -0.12 0.82 -0.34 s0.34 -0.5 0.34 -0.82 l0 -8.1 c0 -0.64 -0.52 -1.16 -1.16 -1.16 l-0.6 0 z M61.73 5.68 l0 14.24 l-1.9 0 l0 -14.24 l1.9 0 z M73.348 16.72 l0.08 -11.08 l1.92 0 l-0.12 14.44 l-2.98 0 l-1.62 -11.18 l0 11.18 l-1.92 0 l0 -14.44 l3.1 0 z M85.22599999999998 20.16 l-0.44 0 c-1.4 0 -2.52 -1.12 -2.52 -2.52 l0 -9.64 c0 -1.4 1.12 -2.54 2.52 -2.54 l0.44 0 c1.4 0 2.52 1.14 2.52 2.54 l0 1.02 l-1.96 0 l0 -1.02 c0 -0.34 -0.24 -0.58 -0.56 -0.58 l-0.44 0 c-0.3 0 -0.58 0.24 -0.58 0.58 l0 9.64 c0 0.3 0.28 0.58 0.58 0.58 l0.44 0 c0.32 0 0.56 -0.28 0.56 -0.58 l0 -5.2 l-1.12 0 l0 -1.94 l3.08 0 l0 7.14 c0 1.4 -1.12 2.52 -2.52 2.52 z M109.36199999999998 12.46 l-2.76 0 l0 5.64 l2.78 0 l0 1.9 l-4.68 0 l0 -14.28 l4.68 0 l0 1.9 l-2.78 0 l0 2.94 l2.76 0 l0 1.9 z M118.85999999999999 20.02 l-2.5 0 l0 -14.26 l2.5 0 c1.7 0 3.06 1.38 3.06 3.08 l0 8.1 c0 0.82 -0.32 1.6 -0.9 2.18 s-1.34 0.9 -2.16 0.9 z M118.25999999999999 7.68 l0 10.42 l0.6 0 c0.3 0 0.6 -0.12 0.82 -0.34 s0.34 -0.5 0.34 -0.82 l0 -8.1 c0 -0.64 -0.52 -1.16 -1.16 -1.16 l-0.6 0 z M131.858 20.16 l-0.44 0 c-1.4 0 -2.52 -1.12 -2.52 -2.52 l0 -9.64 c0 -1.4 1.12 -2.54 2.52 -2.54 l0.44 0 c1.4 0 2.52 1.14 2.52 2.54 l0 1.02 l-1.96 0 l0 -1.02 c0 -0.34 -0.24 -0.58 -0.56 -0.58 l-0.44 0 c-0.3 0 -0.58 0.24 -0.58 0.58 l0 9.64 c0 0.3 0.28 0.58 0.58 0.58 l0.44 0 c0.32 0 0.56 -0.28 0.56 -0.58 l0 -5.2 l-1.12 0 l0 -1.94 l3.08 0 l0 7.14 c0 1.4 -1.12 2.52 -2.52 2.52 z M146.016 12.46 l-2.76 0 l0 5.64 l2.78 0 l0 1.9 l-4.68 0 l0 -14.28 l4.68 0 l0 1.9 l-2.78 0 l0 2.94 l2.76 0 l0 1.9 z"></path></g></svg>